<?xml version="1.0" encoding="UTF-8" standalone="no"?><!DOCTYPE svg PUBLIC "-//W3C//DTD SVG 1.1//EN" "http://www.w3.org/Graphics/SVG/1.1/DTD/svg11.dtd"><svg width="100%" height="100%" viewBox="0 0 178 147" version="1.1" xmlns="http://www.w3.org/2000/svg" xmlns:xlink="http://www.w3.org/1999/xlink" xml:space="preserve" xmlns:serif="http://www.serif.com/" style="fill-rule:evenodd;clip-rule:evenodd;stroke-linejoin:round;stroke-miterlimit:2;"><path d="M59.451,16.179l0,7.449c0,1.856 -1.507,3.363 -3.363,3.363l-6.727,0c-1.856,0 -3.364,-1.507 -3.364,-3.363l0,-7.449c0,-1.856 1.508,-3.364 3.364,-3.364l6.727,0c1.856,0 3.363,1.508 3.363,3.364Z" style="fill:#e4f8fd;"/><path d="M162.92,123.993l-55.661,18.481c-15.36,5.1 -36.023,5.389 -46.113,0.645l-55.679,-26.175c-10.091,-4.744 -5.813,-12.736 9.547,-17.836l55.66,-18.481c15.36,-5.1 36.023,-5.389 46.114,-0.646l55.679,26.176c10.091,4.744 5.813,12.736 -9.547,17.836Z" style="fill:#1f2937;"/><rect x="73.827" y="36.685" width="15.656" height="12.337" style="fill:#e4f8fd;"/><path d="M43.249,90.351l11.144,-4.23c1.07,-0.406 1.609,-1.605 1.203,-2.675c-0.406,-1.07 -1.605,-1.609 -2.675,-1.203l-11.144,4.229c-1.07,0.406 -1.609,1.605 -1.203,2.675c0.406,1.071 1.605,1.61 2.675,1.204Z" style="fill:#e4f8fd;"/><path d="M44.164,88.463l-0,22.861c-0,1.145 -0.929,2.075 -2.074,2.075c-1.145,-0 -2.074,-0.93 -2.074,-2.075l-0,-22.861c-0,-1.145 0.929,-2.074 2.074,-2.074c1.145,-0 2.074,0.929 2.074,2.074Z" style="fill:#e4f8fd;"/><path d="M132.304,89.156l-0,24.564c-0,1.145 -0.93,2.074 -2.074,2.074c-1.145,0 -2.075,-0.929 -2.075,-2.074l0,-24.564c0,-1.144 0.93,-2.074 2.075,-2.074c1.144,0 2.074,0.93 2.074,2.074Z" style="fill:#e4f8fd;"/><path d="M122.609,71.289l0,12.783c0,1.145 -0.929,2.075 -2.074,2.075c-1.145,-0 -2.074,-0.93 -2.074,-2.075l-0,-12.783c-0,-1.145 0.929,-2.074 2.074,-2.074c1.145,-0 2.074,0.929 2.074,2.074Z" style="fill:#e4f8fd;"/><path d="M54.197,72.416l-0,12.784c-0,1.144 -0.93,2.074 -2.074,2.074c-1.145,-0 -2.075,-0.93 -2.075,-2.074l0,-12.784c0,-1.145 0.93,-2.074 2.075,-2.074c1.144,0 2.074,0.929 2.074,2.074Z" style="fill:#e4f8fd;"/><path d="M117.818,60.523l0,7.767c0,1.145 -0.929,2.075 -2.074,2.075c-1.145,-0 -2.074,-0.93 -2.074,-2.075l-0,-7.767c-0,-1.144 0.929,-2.074 2.074,-2.074c1.145,0 2.074,0.93 2.074,2.074Z" style="fill:#e4f8fd;"/><path d="M67.949,50.932l-0,6.019c-0,1.145 -0.93,2.075 -2.074,2.075c-1.145,-0 -2.075,-0.93 -2.075,-2.075l0,-6.019c0,-1.145 0.93,-2.074 2.075,-2.074c1.144,-0 2.074,0.929 2.074,2.074Z" style="fill:#e4f8fd;"/><path d="M129.767,6.754l0,24.612c0,1.145 -0.929,2.074 -2.074,2.074c-1.145,0 -2.074,-0.929 -2.074,-2.074l-0,-24.612c-0,-1.145 0.929,-2.075 2.074,-2.075c1.145,0 2.074,0.93 2.074,2.075Z" style="fill:#e4f8fd;"/><path d="M108.249,51.777l0,6.02c0,1.145 -0.929,2.074 -2.074,2.074c-1.145,0 -2.074,-0.929 -2.074,-2.074l-0,-6.02c-0,-1.145 0.929,-2.074 2.074,-2.074c1.145,-0 2.074,0.929 2.074,2.074Z" style="fill:#e4f8fd;"/><path d="M119.95,35.011l-11.822,18.234c-0.623,0.96 -1.909,1.235 -2.869,0.612c-0.961,-0.623 -1.235,-1.909 -0.612,-2.869l11.822,-18.234c0.623,-0.961 1.909,-1.235 2.869,-0.612c0.961,0.623 1.235,1.908 0.612,2.869Z" style="fill:#e4f8fd;"/><path d="M58.354,61.439l-0,7.767c-0,1.145 -0.93,2.074 -2.074,2.074c-1.145,0 -2.075,-0.929 -2.075,-2.074l0,-7.767c0,-1.145 0.93,-2.074 2.075,-2.074c1.144,0 2.074,0.929 2.074,2.074Z" style="fill:#e4f8fd;"/><path d="M38.734,33.105l6.023,16.603c0.391,1.076 -0.166,2.267 -1.242,2.657c-1.076,0.391 -2.267,-0.166 -2.657,-1.242l-6.024,-16.603c-0.39,-1.076 0.167,-2.267 1.243,-2.657c1.076,-0.391 2.267,0.166 2.657,1.242Z" style="fill:#e4f8fd;"/><path d="M50.874,36.317c0.874,1.539 0.334,3.497 -1.205,4.371l-6.248,3.547c-1.539,0.874 -3.498,0.334 -4.371,-1.205c-0.874,-1.539 -0.334,-3.498 1.205,-4.371l6.248,-3.547c1.539,-0.874 3.497,-0.334 4.371,1.205Z" style="fill:#e4f8fd;"/><path d="M85.587,132.433l-44.243,-18.179c-1.059,-0.436 -1.566,-1.648 -1.131,-2.707c0.435,-1.059 1.648,-1.566 2.707,-1.131l44.244,18.18c1.059,0.435 1.565,1.648 1.13,2.706c-0.435,1.059 -1.648,1.566 -2.707,1.131Z" style="fill:#e4f8fd;"/><path d="M52.871,55.719l-10.61,-3.165c-1.097,-0.328 -1.722,-1.484 -1.395,-2.581c0.327,-1.097 1.484,-1.722 2.581,-1.395l10.61,3.166c1.097,0.328 1.722,1.484 1.395,2.581c-0.327,1.097 -1.484,1.722 -2.581,1.394Z" style="fill:#e4f8fd;"/><path d="M73.112,49.443l-6.863,-2.048c-1.097,-0.327 -1.722,-1.483 -1.394,-2.58c0.327,-1.097 1.483,-1.722 2.58,-1.395l6.863,2.048c1.097,0.327 1.722,1.483 1.395,2.58c-0.328,1.097 -1.484,1.722 -2.581,1.395Z" style="fill:#e4f8fd;"/><path d="M128.847,90.864l-12.057,-4.954c-1.059,-0.435 -1.566,-1.648 -1.13,-2.707c0.435,-1.059 1.648,-1.565 2.706,-1.13l12.057,4.954c1.059,0.435 1.566,1.648 1.131,2.707c-0.435,1.059 -1.648,1.565 -2.707,1.13Z" style="fill:#e4f8fd;"/><path d="M118.821,73.027l-6.656,-4.408c-0.955,-0.632 -1.216,-1.92 -0.584,-2.874c0.632,-0.955 1.92,-1.217 2.874,-0.584l6.656,4.408c0.955,0.632 1.216,1.92 0.584,2.874c-0.632,0.955 -1.92,1.216 -2.874,0.584Z" style="fill:#e4f8fd;"/><path d="M54.145,73.239l6.656,-4.408c0.955,-0.633 1.216,-1.921 0.584,-2.875c-0.632,-0.955 -1.92,-1.216 -2.874,-0.584l-6.656,4.408c-0.955,0.632 -1.216,1.92 -0.584,2.875c0.632,0.954 1.92,1.216 2.874,0.584Z" style="fill:#e4f8fd;"/><path d="M113.784,62.107l-8.907,-2.851c-1.091,-0.349 -1.692,-1.518 -1.343,-2.608c0.349,-1.09 1.517,-1.692 2.607,-1.343l8.908,2.852c1.091,0.349 1.692,1.517 1.343,2.607c-0.349,1.091 -1.517,1.692 -2.608,1.343Z" style="fill:#e4f8fd;"/><path d="M126.034,8.365l-14.726,-4.299c-1.099,-0.321 -1.731,-1.474 -1.41,-2.573c0.321,-1.099 1.473,-1.73 2.572,-1.409l14.727,4.298c1.099,0.321 1.731,1.474 1.41,2.573c-0.321,1.099 -1.474,1.73 -2.573,1.41Z" style="fill:#e4f8fd;"/><path d="M57.527,62.53l10.357,-3.315c1.091,-0.349 1.692,-1.518 1.343,-2.608c-0.349,-1.09 -1.517,-1.692 -2.607,-1.343l-10.358,3.315c-1.09,0.349 -1.692,1.518 -1.343,2.608c0.349,1.09 1.518,1.692 2.608,1.343Z" style="fill:#e4f8fd;"/><path d="M118.566,36.29l9.491,-2.059c1.119,-0.242 1.83,-1.347 1.588,-2.466c-0.243,-1.119 -1.348,-1.83 -2.467,-1.588l-9.491,2.058c-1.119,0.243 -1.831,1.348 -1.588,2.467c0.243,1.119 1.348,1.83 2.467,1.588Z" style="fill:#e4f8fd;"/><path d="M96.701,8.118l15.712,-3.966c1.11,-0.281 1.784,-1.409 1.504,-2.519c-0.28,-1.11 -1.409,-1.784 -2.519,-1.504l-15.713,3.967c-1.11,0.28 -1.783,1.409 -1.503,2.519c0.28,1.11 1.409,1.783 2.519,1.503Z" style="fill:#e4f8fd;"/><path d="M67.168,9.982l14.355,4.079c1.101,0.313 2.249,-0.327 2.562,-1.428c0.313,-1.101 -0.327,-2.249 -1.428,-2.562l-14.355,-4.079c-1.101,-0.313 -2.249,0.327 -2.562,1.428c-0.313,1.101 0.327,2.249 1.428,2.562Z" style="fill:#e4f8fd;"/><path d="M68.185,9.824l-12.34,8.392c-0.946,0.644 -2.238,0.398 -2.881,-0.549c-0.644,-0.946 -0.398,-2.238 0.548,-2.881l12.341,-8.392c0.946,-0.644 2.237,-0.398 2.881,0.549c0.644,0.946 0.398,2.237 -0.549,2.881Z" style="fill:#e4f8fd;"/><path d="M53.243,25.399l-15.348,9.833c-0.964,0.618 -2.248,0.336 -2.865,-0.628c-0.618,-0.963 -0.337,-2.247 0.627,-2.865l15.348,-9.833c0.964,-0.618 2.248,-0.336 2.866,0.628c0.617,0.964 0.336,2.247 -0.628,2.865Z" style="fill:#e4f8fd;"/><path d="M71.031,45.455l-15.019,10.33c-0.943,0.649 -2.235,0.409 -2.884,-0.534c-0.649,-0.943 -0.41,-2.236 0.533,-2.884l15.019,-10.33c0.943,-0.648 2.236,-0.409 2.885,0.534c0.648,0.943 0.409,2.236 -0.534,2.884Z" style="fill:#e4f8fd;"/><path d="M82.514,16.52l12.707,-2.611c1.995,-0.41 3.283,-2.363 2.873,-4.358c-0.41,-1.996 -2.363,-3.283 -4.359,-2.873l-12.706,2.61c-1.996,0.41 -3.283,2.363 -2.873,4.359c0.41,1.995 2.363,3.283 4.358,2.873Z" style="fill:#e4f8fd;"/><path d="M67.109,52.272l7.759,-2.484c1.09,-0.349 1.692,-1.517 1.343,-2.608c-0.349,-1.09 -1.518,-1.692 -2.608,-1.343l-7.759,2.484c-1.09,0.349 -1.692,1.517 -1.343,2.608c0.349,1.09 1.518,1.692 2.608,1.343Z" style="fill:#e4f8fd;"/><path d="M87.284,132.413l43.646,-16.566c1.071,-0.406 1.61,-1.604 1.204,-2.675c-0.407,-1.07 -1.605,-1.609 -2.676,-1.203l-43.646,16.565c-1.071,0.406 -1.61,1.605 -1.204,2.675c0.407,1.071 1.605,1.61 2.676,1.204Z" style="fill:#e4f8fd;"/><g><path d="M73.441,76.708l0,14.67l-19.445,-3.24l-0,-14.67l19.445,3.24Z" style="fill:#ae6872;"/><path d="M107.501,75.156l-0,14.026l10.993,-2.032l0,-14.026l-10.993,2.032Z" style="fill:#ae6872;"/><path d="M127.867,90.121l-0,19.879l-41.43,17.59l0,-19.878l41.43,-17.591Z" style="fill:#ae6872;"/><path d="M45.05,90.016l0,19.879l41.43,17.59l-0,-19.878l-41.43,-17.591Z" style="fill:#e0a36c;"/><path d="M45.05,90.016l41.406,-17.405l41.429,17.591l-41.405,17.405l-41.43,-17.591Z" style="fill:#e0a36c;"/><path d="M100.727,79.994l0,14.025l15.057,2.553l-0,-14.025l-15.057,-2.553Z" style="fill:#e0a36c;"/><path d="M97.281,88.455l9.652,-6.872l-33.316,-4.945l-9.651,6.871l33.315,4.946Z" style="fill:#e0a36c;"/><path d="M78.348,88.678l0,14.67l5.956,-4.753l-0,-14.67l-5.956,4.753Z" style="fill:#ae6872;"/><path d="M56.932,82.569l-0,1.901l21.823,-2.962l0,-1.901l-21.823,2.962Z" style="fill:#ae6872;"/><path d="M56.932,82.569l-0,14.523l7.064,-0.959l-0,-14.522l-7.064,0.958Z" style="fill:#ae6872;"/><path d="M56.932,95.153l-0,1.939l16.922,-2.297l-0,-1.939l-16.922,2.297Z" style="fill:#ae6872;"/><path d="M78.348,101.798l0,1.55l10.846,-8.656l0,-1.55l-10.846,8.656Z" style="fill:#ae6872;"/><path d="M78.348,88.668l0,2.656l10.846,-8.656l0,-2.656l-10.846,8.656Z" style="fill:#ae6872;"/><path d="M94.855,90.41l-6.996,-5.846l0.03,-1.856l6.996,5.847l-0.03,1.855Z" style="fill:#e0a36c;"/><path d="M94.645,103.296l-3.187,-2.664l0.241,-14.74l3.186,2.663l-0.24,14.741Z" style="fill:#e0a36c;"/><path d="M94.645,103.296l-6.978,-5.831l0.039,-2.346l6.977,5.831l-0.038,2.346Z" style="fill:#e0a36c;"/><path d="M91.622,87.659l0,10.689l-7.362,-1.093l0,-10.689l7.362,1.093Z" style="fill:#c97f7a;"/><path d="M100.572,86.184l-0,12.265l6.273,-4.586l0,-12.264l-6.273,4.585Z" style="fill:#c97f7a;"/><path d="M71.758,84.666l-0,10.689l-7.792,-1.157l-0,-10.689l7.792,1.157Z" style="fill:#c97f7a;"/><path d="M78.348,88.678l0,14.67l-11.187,-1.66l0,-14.67l11.187,1.66Z" style="fill:#e0a36c;"/><path d="M78.348,88.678l9.148,-7.277l-11.187,-1.66l-9.148,7.277l11.187,1.66Z" style="fill:#e4bb67;"/><path d="M105.842,86.828l-6.996,-5.847l-11.012,1.742l6.996,5.847l11.012,-1.742Z" style="fill:#e4bb67;"/><path d="M56.919,82.459l-0,14.671l-4.128,-3.528l0,-14.67l4.128,3.527Z" style="fill:#e0a36c;"/><path d="M73.441,76.708l4.696,-3.343l-19.445,-3.24l-4.696,3.343l19.445,3.24Z" style="fill:#e4bb67;"/><path d="M56.993,82.522l17.637,-2.311l-4.201,-3.591l-17.638,2.312l4.202,3.59Z" style="fill:#e4bb67;"/><path d="M105.78,86.789l0,14.67l-11.187,1.836l0,-14.67l11.187,-1.836Z" style="fill:#c97f79;"/><path d="M119.764,78.564l-0,14.026l-3.98,3.982l-0,-14.025l3.98,-3.983Z" style="fill:#ae6872;"/><path d="M98.297,79.582l3.765,-3.821l17.487,2.965l-3.765,3.821l-17.487,-2.965Z" style="fill:#e4bb67;"/><path d="M98.77,76.408l-6.099,-4.031l20.089,-3.246l6.098,4.031l-20.088,3.246Z" style="fill:#e4bb67;"/><path d="M112.553,61.95l-0,14.125l-26.387,9.101l-0,-14.125l26.387,-9.101Z" style="fill:#ae6872;"/><path d="M59.84,62.032l0,14.046l26.388,9.135l-0,-14.045l-26.388,-9.136Z" style="fill:#e0a36c;"/><path d="M59.84,62.032l26.502,-9.228l26.387,9.136l-26.501,9.228l-26.388,-9.136Z" style="fill:#e4bb67;"/><path d="M73.959,61.25l10.418,-3.627c2.875,-1.002 6.657,-1.313 8.44,-0.696l10.684,3.699c1.783,0.617 0.896,1.931 -1.979,2.933l-10.419,3.627c-2.875,1.002 -6.656,1.313 -8.439,0.696l-10.684,-3.699c-1.783,-0.617 -0.897,-1.931 1.979,-2.933Z" style="fill:#c3737d;"/><path d="M67.597,51.731l-0,11.153l15.939,5.284l0,-11.152l-15.939,-5.285Z" style="fill:#32475d;"/><path d="M67.643,51.722l21.194,-7.106l15.893,5.293l-21.194,7.107l-15.893,-5.294Z" style="fill:#487085;"/><path d="M93.081,30.102l-12.161,20.516l7.663,2.653l12.16,-20.516l-7.662,-2.653Z" style="fill:#e0a36c;"/><path d="M116.273,31.745l-15.302,25.815l-12.388,-4.289l15.301,-25.815l12.389,4.289Z" style="fill:#874967;"/><path d="M107.709,23.449l8.919,8.912l-11.693,18.417c4.085,-8.397 5.782,-17.333 2.774,-27.329Z" style="fill:#442e43;"/><path d="M104.774,49.856l-0,11.153l-21.238,7.159l0,-11.152l21.238,-7.16Z" style="fill:#374f65;"/><path d="M81.031,56.181l21.278,-7.134l2.505,0.834l-21.278,7.135l-2.505,-0.835Z" style="fill:#487085;"/><path d="M61.768,18.553l40.271,-9.105l2.809,0.751l-40.271,9.105l-2.809,-0.751Z" style="fill:#e4bb67;"/><path d="M64.318,19.235l40.273,-9.106l17.067,4.566l-40.273,9.106l-17.067,-4.566Z" style="fill:#e4bb67;"/><path d="M111.198,11.939l0,22.208l-13.875,-4.122l-0,-22.207l13.875,4.121Z" style="fill:#32475d;"/><path d="M111.198,11.939l14.667,-3.626l-13.847,-4.056l-14.667,3.625l13.847,4.057Z" style="fill:#487085;"/><path d="M111.198,11.939l14.538,-3.713l0.019,22.147l-14.538,3.713l-0.019,-22.147Z" style="fill:#374f65;"/><path d="M111.198,11.939l0,22.208l-13.875,-4.122l-0,-22.207l13.875,4.121Z" style="fill:#32475d;"/><path d="M111.198,11.939l14.667,-3.626l-13.847,-4.056l-14.667,3.625l13.847,4.057Z" style="fill:#487085;"/><path d="M111.198,11.939l14.538,-3.713l0.019,22.147l-14.538,3.713l-0.019,-22.147Z" style="fill:#374f65;"/><path d="M111.023,20.269l0.08,-8.206l14.491,-3.767c-6.014,2.264 -11.154,5.832 -14.571,11.973Z" style="fill:#487085;fill-opacity:0.24;"/><path d="M81.484,38.046l-19.496,-5.418l-0.099,-14.259l19.496,5.417l0.099,14.26Z" style="fill:#e4c067;"/><path d="M62.813,18.832l32.737,-7.401l18.572,4.968l-32.737,7.402l-18.572,-4.969Z" style="fill:#e4bb67;"/><path d="M66.131,24.673l7.652,20.723l-13.876,-4.121l-7.652,-20.723l13.876,4.121Z" style="fill:#32475d;"/><path d="M66.096,24.679l15.636,-10.614l-13.847,-4.057l-15.637,10.614l13.848,4.057Z" style="fill:#487085;"/><path d="M66.127,24.665l15.521,-10.661l7.65,20.783l-15.521,10.661l-7.65,-20.783Z" style="fill:#374f65;"/><path d="M51.951,45.439l2.39,6.363l-9.809,-2.864l-2.39,-6.363l9.809,2.864Z" style="fill:#32475d;"/><path d="M52.044,45.529l15.443,-10.305l-9.788,-2.819l-15.444,10.305l9.789,2.819Z" style="fill:#2a3641;"/><path d="M48.932,37.402l2.106,5.608l-9.809,-2.864l-2.106,-5.608l9.809,2.864Z" style="fill:#32475d;"/><path d="M81.413,14.176l7.657,20.732l-15.314,10.53c5.694,-6.138 9.014,-15.512 7.657,-31.262Z" style="fill:#2a3641;fill-opacity:0.66;"/><path d="M48.907,37.405l15.443,-10.304l-9.789,-2.819l-15.443,10.304l9.789,2.819Z" style="fill:#487085;"/><path d="M48.942,37.431l15.161,-10.237l2.009,5.364l-15.162,10.237l-2.008,-5.364Z" style="fill:#374f65;"/><path d="M48.942,37.431l15.161,-10.237l2.009,5.364l-15.162,10.237l-2.008,-5.364Z" style="fill:#374f65;"/><path d="M51.964,45.502l15.161,-10.237l2.373,6.336l-15.161,10.238l-2.373,-6.337Z" style="fill:#374f65;"/><path d="M81.484,38.046l39.926,-9.114l-0.099,-14.291l-39.927,9.114l0.1,14.291Z" style="fill:#ae6872;"/><path d="M78.413,23.006l40.274,-9.106l2.971,0.795l-40.273,9.106l-2.972,-0.795Z" style="fill:#e4bb67;"/><path d="M78.413,23.006l0.189,14.168l2.972,0.795l-0.189,-14.168l-2.972,-0.795Z" style="fill:#e4bb67;"/><path d="M93.823,32.282l6.333,1.673l-11.722,19.649c4.318,-8.289 6.731,-15.686 5.389,-21.322Z" style="fill:#c3737d;"/><path d="M87.017,72.183l-0,13.367l-28.027,-9.067c11.62,2.616 21.518,2.172 28.027,-4.3Z" style="fill:#c3737d;"/><path d="M86.168,110.126l-0,16.553l-32.007,-13.449c13.27,4.16 24.574,4.395 32.007,-3.104Z" style="fill:#c3737d;"/><path d="M59.104,76.522l0,-13.367l21.306,6.892c-8.833,-1.715 -16.358,-0.503 -21.306,6.475Z" style="fill:#e4bb67;"/><path d="M45.048,105.482l0,-13.367l30.834,9.975c-12.783,-2.993 -23.673,-2.869 -30.834,3.392Z" style="fill:#e4bb67;"/><path d="M87.161,72.071c-0,0.882 -0.648,1.388 -1.446,1.13l-25.849,-8.359c-0.798,-0.258 -1.445,-1.183 -1.445,-2.064c-0,-0.881 0.647,-1.387 1.445,-1.129l25.849,8.358c0.798,0.258 1.446,1.183 1.446,2.064Z" style="fill:#fefc97;"/><path d="M81.833,37.448l-0,-12.169l25.442,-5.931c-10.548,3.499 -19.534,8.913 -25.442,18.1Z" style="fill:#c97f79;"/><path d="M86.08,125.988l0,-18.679l40.427,-16.463c-16.761,8.422 -31.039,19.332 -40.427,35.142Z" style="fill:#c97f79;"/><path d="M85.643,84.297c-0,0.881 0.645,1.384 1.44,1.122l25.18,-8.293c0.795,-0.261 1.441,-1.19 1.441,-2.071c-0,-0.881 -0.646,-1.384 -1.441,-1.122l-25.18,8.293c-0.795,0.262 -1.44,1.19 -1.44,2.071Z" style="fill:#874967;"/><path d="M85.832,126.936c-0,0.881 0.626,1.361 1.398,1.07l39.697,-14.942c0.772,-0.291 1.399,-1.242 1.399,-2.123c-0,-0.882 -0.627,-1.361 -1.399,-1.071l-39.697,14.943c-0.772,0.29 -1.398,1.241 -1.398,2.123Z" style="fill:#874967;"/><path d="M125.805,91.748l0,20.299c0,0.794 0.565,1.226 1.26,0.965c0.696,-0.262 1.261,-1.119 1.261,-1.913l-0,-20.3c-0,-0.794 -0.565,-1.226 -1.261,-0.964c-0.695,0.262 -1.26,1.119 -1.26,1.913Z" style="fill:#874967;"/><path d="M87.139,84.071c0,0.881 -0.645,1.384 -1.44,1.122l-25.859,-8.517c-0.795,-0.262 -1.441,-1.19 -1.441,-2.071c0,-0.881 0.646,-1.384 1.441,-1.122l25.859,8.516c0.795,0.262 1.44,1.19 1.44,2.072Z" style="fill:#c3737d;"/><path d="M87.139,84.071c0,0.881 -0.645,1.384 -1.44,1.122l-25.859,-8.517c-0.795,-0.262 -1.441,-1.19 -1.441,-2.071c0,-0.881 0.646,-1.384 1.441,-1.122l25.859,8.516c0.795,0.262 1.44,1.19 1.44,2.072Z" style="fill:#c3737d;"/><path d="M87.234,127.292c-0,0.881 -0.615,1.348 -1.372,1.041l-40.218,-16.281c-0.757,-0.307 -1.372,-1.271 -1.372,-2.152c-0,-0.882 0.615,-1.348 1.372,-1.042l40.218,16.282c0.757,0.307 1.372,1.271 1.372,2.152Z" style="fill:#c3737d;"/><path d="M110.951,63.702l0,12.331c0,0.842 0.617,1.322 1.377,1.072c0.759,-0.25 1.376,-1.137 1.376,-1.978l-0,-12.331c-0,-0.842 -0.617,-1.323 -1.376,-1.073c-0.76,0.25 -1.377,1.137 -1.377,1.979Z" style="fill:#874967;"/><path d="M111.21,64.804l-0,9.592l-11.483,4.221c4.761,-2.57 8.816,-6.677 11.483,-13.813Z" style="fill:#874967;"/><path d="M81.439,36.915c-0,0.881 0.677,1.435 1.51,1.235l37.182,-8.895c0.833,-0.2 1.51,-1.077 1.51,-1.958c-0,-0.881 -0.677,-1.435 -1.51,-1.236l-37.182,8.896c-0.833,0.199 -1.51,1.077 -1.51,1.958Z" style="fill:#874967;"/><path d="M118.616,16.064l0,12.331c0,0.842 0.617,1.322 1.376,1.072c0.76,-0.25 1.376,-1.137 1.376,-1.979l0,-12.331c0,-0.842 -0.616,-1.322 -1.376,-1.072c-0.759,0.25 -1.376,1.137 -1.376,1.979Z" style="fill:#874967;"/><path d="M118.875,17.165l-0,9.593l-20.917,4.952c8.672,-2.873 16.059,-7.239 20.917,-14.545Z" style="fill:#874967;"/><path d="M126.775,92.784l0,18.403l-29.06,10.68c12.048,-6.002 22.312,-14.793 29.06,-29.083Z" style="fill:#874967;"/><path d="M61.009,63.448l0,12.171c0,0.789 -0.58,1.242 -1.294,1.011c-0.714,-0.231 -1.294,-1.059 -1.294,-1.848l-0,-12.171c-0,-0.789 0.58,-1.242 1.294,-1.011c0.714,0.231 1.294,1.059 1.294,1.848Z" style="fill:#fefc97;"/><path d="M61.009,63.448l0,12.171c0,0.789 -0.58,1.242 -1.294,1.011c-0.714,-0.231 -1.294,-1.059 -1.294,-1.848l-0,-12.171c-0,-0.789 0.58,-1.242 1.294,-1.011c0.714,0.231 1.294,1.059 1.294,1.848Z" style="fill:#fefc97;"/><path d="M87.098,71.902l0.269,9.655c0.022,0.796 -0.539,1.255 -1.254,1.024c-0.714,-0.231 -1.312,-1.065 -1.334,-1.861l-0.269,-9.655c-0.023,-0.796 0.539,-1.255 1.253,-1.024c0.715,0.231 1.313,1.065 1.335,1.861Z" style="fill:#fefc97;"/><path d="M61.009,63.448l0,6.751c0,0.788 -0.58,1.241 -1.294,1.011c-0.714,-0.231 -1.294,-1.059 -1.294,-1.848l-0,-6.751c-0,-0.789 0.58,-1.242 1.294,-1.011c0.714,0.231 1.294,1.059 1.294,1.848Z" style="fill:#fffeca;"/><path d="M46.199,90.333l-0,20c-0,0.789 -0.58,1.242 -1.294,1.011c-0.715,-0.231 -1.295,-1.059 -1.295,-1.848l0,-20c0,-0.789 0.58,-1.242 1.295,-1.011c0.714,0.231 1.294,1.059 1.294,1.848Z" style="fill:#fefc97;"/><path d="M87.026,108.143l0,13.999c0,0.789 -0.58,1.242 -1.294,1.011c-0.714,-0.231 -1.294,-1.059 -1.294,-1.848l-0,-13.999c-0,-0.789 0.58,-1.242 1.294,-1.011c0.714,0.231 1.294,1.059 1.294,1.848Z" style="fill:#fefc97;"/><path d="M46.199,90.333l-0,6.751c-0,0.789 -0.58,1.242 -1.294,1.011c-0.715,-0.231 -1.295,-1.059 -1.295,-1.848l0,-6.751c0,-0.789 0.58,-1.242 1.295,-1.011c0.714,0.231 1.294,1.059 1.294,1.848Z" style="fill:#fffeca;"/><path d="M66.698,61.831l-6.82,2.268c-0.717,0.239 -1.425,-0.164 -1.582,-0.898c-0.156,-0.734 0.299,-1.524 1.016,-1.762l6.82,-2.269c0.717,-0.238 1.425,0.164 1.582,0.898c0.156,0.735 -0.299,1.524 -1.016,1.763Z" style="fill:#fffeca;"/><path d="M95.809,12.182l-12.074,3.026c-0.729,0.183 -1.432,-0.268 -1.568,-1.006c-0.136,-0.739 0.347,-1.486 1.076,-1.669l12.074,-3.026c0.73,-0.183 1.433,0.268 1.568,1.006c0.136,0.738 -0.346,1.486 -1.076,1.669Z" style="fill:#fffeca;"/><path d="M51.013,89.034l-5.624,1.871c-0.717,0.239 -1.426,-0.164 -1.582,-0.898c-0.157,-0.734 0.298,-1.524 1.015,-1.763l5.624,-1.87c0.717,-0.239 1.426,0.164 1.582,0.898c0.156,0.734 -0.299,1.524 -1.015,1.762Z" style="fill:#fffeca;"/><path d="M84.551,72.071c0,0.882 0.642,1.38 1.433,1.112l26.171,-8.856c0.791,-0.268 1.433,-1.201 1.433,-2.082c-0,-0.881 -0.642,-1.379 -1.433,-1.112l-26.171,8.857c-0.791,0.268 -1.433,1.2 -1.433,2.081Z" style="fill:#f4e693;"/><path d="M84.551,72.071c0,0.882 0.642,1.38 1.433,1.112l10.951,-3.706c0.791,-0.267 1.433,-1.2 1.433,-2.081c-0,-0.881 -0.642,-1.38 -1.433,-1.112l-10.951,3.706c-0.791,0.268 -1.433,1.2 -1.433,2.081Z" style="fill:#fefc97;"/><path d="M81.91,24.382l0.301,10.789c0.022,0.796 -0.54,1.255 -1.254,1.024c-0.715,-0.231 -1.313,-1.064 -1.335,-1.861l-0.301,-10.789c-0.022,-0.796 0.54,-1.255 1.254,-1.024c0.714,0.231 1.312,1.065 1.335,1.861Z" style="fill:#fefc97;"/><path d="M81.913,24.488c0.023,0.854 -0.58,1.347 -1.347,1.099l-1.688,-0.546c-0.766,-0.248 -1.408,-1.143 -1.432,-1.998c-0.024,-0.854 0.579,-1.347 1.346,-1.099l1.688,0.546c0.767,0.248 1.409,1.143 1.433,1.998Z" style="fill:#fefc97;"/><path d="M102.259,15.994c-1.33,0.417 -3.033,0.554 -3.799,0.306l-5.002,-1.617c-0.767,-0.248 -0.309,-0.788 1.021,-1.205c1.33,-0.417 3.032,-0.554 3.799,-0.306l5.002,1.618c0.767,0.247 0.309,0.787 -1.021,1.204Z" style="fill:#e0a36c;"/><path d="M94.287,18.21c-1.331,0.417 -3.033,0.554 -3.8,0.306l-5.002,-1.618c-0.766,-0.248 -0.309,-0.787 1.021,-1.204c1.33,-0.417 3.033,-0.554 3.8,-0.306l5.001,1.617c0.767,0.248 0.31,0.788 -1.02,1.205Z" style="fill:#e0a36c;"/><path d="M79.363,24.551c-0,0.881 0.678,1.438 1.514,1.243l38.221,-8.926c0.835,-0.195 1.514,-1.069 1.514,-1.95c-0,-0.881 -0.679,-1.438 -1.514,-1.243l-38.221,8.926c-0.836,0.195 -1.514,1.069 -1.514,1.95Z" style="fill:#f4e693;"/><path d="M79.363,24.551c-0,0.881 0.678,1.438 1.514,1.243l21.594,-5.043c0.836,-0.195 1.514,-1.069 1.514,-1.95c0,-0.882 -0.678,-1.439 -1.514,-1.243l-21.594,5.043c-0.836,0.195 -1.514,1.069 -1.514,1.95Z" style="fill:#fefc97;"/><path d="M85.91,107.39c-0,0.881 0.642,1.379 1.432,1.112l18.99,-6.426c0.79,-0.268 1.432,-1.201 1.432,-2.082c0,-0.881 -0.642,-1.379 -1.432,-1.112l-18.99,6.426c-0.79,0.268 -1.432,1.201 -1.432,2.082Z" style="fill:#f4e693;"/><path d="M126.396,91.831c0,0.882 -0.642,1.814 -1.432,2.082l-9.809,3.319c-0.79,0.268 -1.432,-0.231 -1.432,-1.112c-0,-0.881 0.642,-1.814 1.432,-2.081l9.809,-3.319c0.79,-0.268 1.432,0.23 1.432,1.111Z" style="fill:#f4e693;"/><path d="M84.702,107.799c0,0.881 0.642,1.379 1.433,1.111l14.901,-5.042c0.791,-0.268 1.433,-1.201 1.433,-2.082c-0,-0.881 -0.642,-1.379 -1.433,-1.112l-14.901,5.043c-0.791,0.268 -1.433,1.2 -1.433,2.082Z" style="fill:#fefc97;"/><path d="M69.485,66.469c0,0.944 -0.694,1.486 -1.548,1.21l-7.968,-2.576c-0.854,-0.277 -1.548,-1.267 -1.548,-2.211c-0,-0.944 0.694,-1.486 1.548,-1.21l7.968,2.577c0.854,0.276 1.548,1.267 1.548,2.21Z" style="fill:#fffeca;"/><path d="M69.485,66.469c0,0.944 -0.694,1.486 -1.548,1.21l-7.968,-2.576c-0.854,-0.277 -1.548,-1.267 -1.548,-2.211c-0,-0.944 0.694,-1.486 1.548,-1.21l7.968,2.577c0.854,0.276 1.548,1.267 1.548,2.21Z" style="fill:#fffeca;"/><path d="M86.859,108.07c0,0.881 -0.616,1.349 -1.374,1.044l-40.632,-16.339c-0.759,-0.305 -1.375,-1.268 -1.375,-2.15c0,-0.881 0.616,-1.349 1.375,-1.043l40.632,16.339c0.758,0.305 1.374,1.268 1.374,2.149Z" style="fill:#fefc97;"/><path d="M54.543,95.188c-0,0.944 -0.66,1.445 -1.472,1.119l-8.121,-3.266c-0.812,-0.326 -1.472,-1.358 -1.472,-2.302c0,-0.944 0.66,-1.445 1.472,-1.118l8.121,3.265c0.812,0.327 1.472,1.358 1.472,2.302Z" style="fill:#fffeca;"/><path d="M104.385,51.479l-0,9.705l-20.791,6.872c8.62,-3.679 15.963,-8.753 20.791,-16.577Z" style="fill:#2a3641;fill-opacity:0.66;"/><path d="M67.281,35.293l2.262,6.124l-9.889,6.8c3.907,-3.343 6.782,-7.415 7.627,-12.924Z" style="fill:#2a3641;fill-opacity:0.66;"/><path d="M69.01,32.375l-2.827,-7.704l15.251,-10.792c-6.081,5.133 -10.696,11.046 -12.424,18.496Z" style="fill:#487085;fill-opacity:0.24;"/><path d="M82.021,36.915c0,0.881 -0.645,1.384 -1.44,1.122l-1.44,-0.474c-0.795,-0.262 -1.44,-1.19 -1.44,-2.071c-0,-0.881 0.645,-1.384 1.44,-1.122l1.44,0.474c0.795,0.262 1.44,1.19 1.44,2.071Z" style="fill:#c3737d;"/><path d="M57.51,19.283l-0,4.52c-0,1.13 -0.829,1.776 -1.849,1.441l-3.698,-1.214c-1.02,-0.335 -1.849,-1.525 -1.849,-2.655l0,-4.521c0,-1.13 0.829,-1.776 1.849,-1.441l3.698,1.214c1.02,0.336 1.849,1.525 1.849,2.656Z" style="fill:#e0a36c;"/><path d="M68.472,22.717l0,4.52c0,1.131 -0.828,1.776 -1.849,1.441l-3.697,-1.214c-1.021,-0.335 -1.849,-1.525 -1.849,-2.655l-0,-4.52c-0,-1.131 0.828,-1.777 1.849,-1.442l3.697,1.215c1.021,0.335 1.849,1.525 1.849,2.655Z" style="fill:#e0a36c;"/><path d="M63.543,22.566l0,1.739c0,0.48 -0.348,0.749 -0.776,0.601l-8.332,-2.881c-0.428,-0.148 -0.776,-0.658 -0.776,-1.138l-0,-1.739c-0,-0.48 0.348,-0.749 0.776,-0.601l8.332,2.881c0.428,0.148 0.776,0.658 0.776,1.138Z" style="fill:#64374d;"/><path d="M56.34,19.974l-0,4.52c-0,1.13 -0.829,1.776 -1.849,1.441l-3.698,-1.214c-1.02,-0.335 -1.849,-1.525 -1.849,-2.656l0,-4.52c0,-1.13 0.829,-1.776 1.849,-1.441l3.698,1.214c1.02,0.335 1.849,1.525 1.849,2.656Z" style="fill:#e4bb67;"/><path d="M54.705,20.455l-0,2.742c-0,0.682 -0.5,1.072 -1.116,0.869l-2.23,-0.732c-0.616,-0.202 -1.116,-0.92 -1.116,-1.602l0,-2.742c0,-0.682 0.5,-1.071 1.116,-0.869l2.23,0.732c0.616,0.203 1.116,0.92 1.116,1.602Z" style="fill:#3aa98b;"/><path d="M67.509,23.447l-0,4.564c-0,1.223 -0.896,1.921 -2,1.559l-4,-1.314c-1.103,-0.362 -2,-1.649 -2,-2.872l0,-4.564c0,-1.223 0.897,-1.921 2,-1.559l4,1.314c1.104,0.362 2,1.649 2,2.872Z" style="fill:#e4bb67;"/><path d="M65.616,23.781l0,2.742c0,0.682 -0.5,1.072 -1.115,0.869l-2.231,-0.732c-0.615,-0.202 -1.115,-0.92 -1.115,-1.602l-0,-2.742c-0,-0.682 0.5,-1.071 1.115,-0.869l2.231,0.732c0.615,0.203 1.115,0.92 1.115,1.602Z" style="fill:#3aa98b;"/></g></svg>