<?xml version="1.0" encoding="UTF-8" standalone="no"?><!DOCTYPE svg PUBLIC "-//W3C//DTD SVG 1.1//EN" "http://www.w3.org/Graphics/SVG/1.1/DTD/svg11.dtd"><svg width="100%" height="100%" viewBox="0 0 540 208" version="1.1" xmlns="http://www.w3.org/2000/svg" xmlns:xlink="http://www.w3.org/1999/xlink" xml:space="preserve" xmlns:serif="http://www.serif.com/" style="fill-rule:evenodd;clip-rule:evenodd;stroke-linejoin:round;stroke-miterlimit:2;"><path d="M396.252,170.393l-0,37.404l-4.017,-0l0,-37.404c0,-0.739 0.6,-1.339 1.339,-1.339l1.339,-0c0.739,-0 1.339,0.6 1.339,1.339Z" style="fill:#e9fcff;"/><path d="M532.514,171.08l-0,36.619l-4.017,-0l-0,-36.619c-0,-1.109 0.9,-2.009 2.008,-2.009c1.109,0 2.009,0.9 2.009,2.009Z" style="fill:#e9fcff;"/><path d="M399.044,85.382l-0,37.386c-0,1.109 -0.9,2.009 -2.009,2.009c-1.108,-0 -2.008,-0.9 -2.008,-2.009l-0,-37.386c-0,-1.109 0.9,-2.008 2.008,-2.008c1.109,-0 2.009,0.899 2.009,2.008Z" style="fill:#e9fcff;"/><path d="M465.908,54.627l-0,13.009c-0,1.108 -0.9,2.008 -2.009,2.008c-1.108,0 -2.008,-0.9 -2.008,-2.008l-0,-13.009c-0,-1.109 0.9,-2.008 2.008,-2.008c1.109,-0 2.009,0.899 2.009,2.008Z" style="fill:#e9fcff;"/><path d="M469.327,54.717l0,7.072c0,1.71 -1.388,3.098 -3.098,3.098c-1.71,0 -3.098,-1.388 -3.098,-3.098l-0,-7.072c-0,-1.71 1.388,-3.098 3.098,-3.098c1.71,0 3.098,1.388 3.098,3.098Z" style="fill:#e9fcff;"/><path d="M530.952,79.578l0,3.906c0,1.982 -1.609,3.591 -3.591,3.591c-1.982,0 -3.591,-1.609 -3.591,-3.591l-0,-3.906c-0,-1.983 1.609,-3.592 3.591,-3.592c1.982,0 3.591,1.609 3.591,3.592Z" style="fill:#e9fcff;"/><path d="M529.049,78.345l0.547,52.637c0.012,1.109 -0.879,2.018 -1.987,2.03c-1.109,0.011 -2.018,-0.879 -2.029,-1.988l-0.547,-52.637c-0.012,-1.109 0.879,-2.018 1.987,-2.03c1.109,-0.011 2.018,0.879 2.029,1.988Z" style="fill:#e9fcff;"/><path d="M389.287,127.675l0,31.523c0,1.108 -0.9,2.008 -2.008,2.008c-1.109,-0 -2.009,-0.9 -2.009,-2.008l0,-31.523c0,-1.109 0.9,-2.009 2.009,-2.009c1.108,0 2.008,0.9 2.008,2.009Z" style="fill:#e9fcff;"/><path d="M539.529,133.844l0,29.08c0,1.109 -0.9,2.009 -2.008,2.009c-1.109,-0 -2.009,-0.9 -2.009,-2.009l0,-29.08c0,-1.109 0.9,-2.008 2.009,-2.008c1.108,-0 2.008,0.899 2.008,2.008Z" style="fill:#e9fcff;"/><rect x="533.364" y="159.14" width="3.194" height="3.664" style="fill:#e9fcff;"/><path d="M406.556,164.369l0,6.72c0,1.108 -0.9,2.008 -2.008,2.008c-1.109,0 -2.009,-0.9 -2.009,-2.008l0,-6.72c0,-1.108 0.9,-2.008 2.009,-2.008c1.108,-0 2.008,0.9 2.008,2.008Z" style="fill:#e9fcff;"/><path d="M523.926,167.845l-0,3.401c-0,1.109 -0.9,2.009 -2.008,2.009c-1.109,-0 -2.009,-0.9 -2.009,-2.009l0,-3.401c0,-1.109 0.9,-2.008 2.009,-2.008c1.108,-0 2.008,0.899 2.008,2.008Z" style="fill:#e9fcff;"/><path d="M393.48,83.267l4.664,4.838c0.769,0.798 0.746,2.07 -0.052,2.839c-0.798,0.77 -2.07,0.746 -2.84,-0.052l-4.664,-4.838c-0.769,-0.798 -0.746,-2.07 0.053,-2.84c0.798,-0.769 2.07,-0.745 2.839,0.053Z" style="fill:#e9fcff;"/><path d="M441.528,38.888l6.215,6.447c0.77,0.798 0.746,2.071 -0.052,2.84c-0.798,0.769 -2.07,0.746 -2.84,-0.052l-6.215,-6.447c-0.769,-0.798 -0.746,-2.071 0.052,-2.84c0.799,-0.769 2.071,-0.746 2.84,0.052Z" style="fill:#e9fcff;"/><path d="M484.341,73.199l6.215,6.448c0.769,0.798 0.746,2.07 -0.052,2.839c-0.798,0.77 -2.07,0.746 -2.84,-0.052l-6.215,-6.447c-0.769,-0.798 -0.746,-2.07 0.052,-2.84c0.798,-0.769 2.071,-0.746 2.84,0.052Z" style="fill:#e9fcff;"/><path d="M403.736,167.472l-17.175,-6.391c-1.039,-0.387 -1.568,-1.544 -1.182,-2.583c0.387,-1.039 1.544,-1.568 2.583,-1.182l17.175,6.392c1.039,0.386 1.569,1.544 1.182,2.583c-0.387,1.038 -1.544,1.568 -2.583,1.181Z" style="fill:#e9fcff;"/><path d="M403.736,167.472l-17.175,-6.391c-1.039,-0.387 -1.568,-1.544 -1.182,-2.583c0.387,-1.039 1.544,-1.568 2.583,-1.182l17.175,6.392c1.039,0.386 1.569,1.544 1.182,2.583c-0.387,1.038 -1.544,1.568 -2.583,1.181Z" style="fill:#e9fcff;"/><path d="M522.175,170.867l16.024,-5.963c1.039,-0.387 1.569,-1.544 1.182,-2.583c-0.386,-1.039 -1.544,-1.568 -2.583,-1.182l-16.023,5.963c-1.039,0.387 -1.569,1.544 -1.182,2.583c0.386,1.039 1.544,1.568 2.582,1.182Z" style="fill:#e9fcff;"/><path d="M395.508,87.577l-16.11,-6.252c-1.034,-0.401 -1.547,-1.565 -1.146,-2.599c0.401,-1.033 1.565,-1.547 2.599,-1.146l16.11,6.252c1.034,0.401 1.547,1.566 1.146,2.599c-0.401,1.033 -1.566,1.547 -2.599,1.146Z" style="fill:#e9fcff;"/><path d="M439.062,41.774l-40.514,-15.721c-1.033,-0.401 -1.547,-1.566 -1.146,-2.599c0.401,-1.033 1.566,-1.547 2.599,-1.146l40.514,15.722c1.033,0.401 1.547,1.565 1.146,2.599c-0.401,1.033 -1.566,1.546 -2.599,1.145Z" style="fill:#e9fcff;"/><path d="M481.108,75.821l-18.116,-7.103c-1.032,-0.405 -1.545,-1.572 -1.144,-2.606c0.401,-1.033 1.565,-1.544 2.597,-1.139l18.116,7.103c1.032,0.405 1.545,1.572 1.144,2.606c-0.401,1.033 -1.565,1.543 -2.597,1.139Z" style="fill:#e9fcff;"/><path d="M466.229,55.721l-17.452,-6.773c-1.033,-0.401 -1.547,-1.565 -1.146,-2.599c0.401,-1.033 1.566,-1.546 2.599,-1.145l17.452,6.772c1.033,0.401 1.547,1.565 1.146,2.599c-0.401,1.033 -1.566,1.547 -2.599,1.146Z" style="fill:#e9fcff;"/><path d="M526.432,79.802l-14.943,-5.799c-1.033,-0.401 -1.546,-1.565 -1.145,-2.599c0.401,-1.033 1.565,-1.546 2.599,-1.145l14.942,5.798c1.034,0.401 1.547,1.566 1.146,2.599c-0.401,1.033 -1.565,1.547 -2.599,1.146Z" style="fill:#e9fcff;"/><rect x="442.813" y="47.219" width="9.09" height="6.589" style="fill:#e9fcff;"/><path d="M378.317,80.699l-7.568,-7.725c-0.776,-0.792 -0.763,-2.064 0.029,-2.84c0.791,-0.776 2.064,-0.763 2.84,0.029l7.568,7.725c0.776,0.792 0.763,2.064 -0.029,2.84c-0.791,0.776 -2.064,0.763 -2.84,-0.029Z" style="fill:#e9fcff;"/><path d="M398.591,121.348l-11.997,4.464c-1.039,0.387 -1.568,1.544 -1.181,2.583c0.386,1.039 1.543,1.568 2.582,1.181l11.997,-4.464c1.039,-0.386 1.568,-1.544 1.181,-2.582c-0.386,-1.039 -1.543,-1.569 -2.582,-1.182Z" style="fill:#e9fcff;"/><path d="M305.108,22.39l-6.999,28.403c-0.265,1.077 -1.354,1.735 -2.431,1.47c-1.076,-0.265 -1.734,-1.354 -1.469,-2.431l6.999,-28.403c0.265,-1.077 1.354,-1.735 2.43,-1.47c1.077,0.265 1.735,1.354 1.47,2.431Z" style="fill:#e9fcff;"/><path d="M328.639,20.254l-24.751,3.614c-1.097,0.16 -2.118,-0.6 -2.278,-1.697c-0.16,-1.097 0.6,-2.118 1.697,-2.278l24.751,-3.614c1.097,-0.16 2.118,0.601 2.278,1.697c0.16,1.097 -0.6,2.118 -1.697,2.278Z" style="fill:#e9fcff;"/><path d="M342.341,63.559l-25.214,3.682c-1.097,0.16 -2.117,-0.601 -2.277,-1.698c-0.16,-1.096 0.6,-2.117 1.697,-2.277l25.213,-3.682c1.097,-0.16 2.118,0.601 2.278,1.698c0.16,1.096 -0.601,2.117 -1.697,2.277Z" style="fill:#e9fcff;"/><path d="M297.338,48.745l20.167,14.798c0.893,0.656 1.087,1.914 0.431,2.808c-0.656,0.893 -1.914,1.086 -2.808,0.431l-20.166,-14.799c-0.894,-0.655 -1.087,-1.913 -0.431,-2.807c0.655,-0.894 1.913,-1.087 2.807,-0.431Z" style="fill:#e9fcff;"/><path d="M347.636,34.566l-20.197,-14.484c-0.901,-0.646 -1.108,-1.902 -0.462,-2.802c0.646,-0.901 1.902,-1.108 2.803,-0.462l20.197,14.484c0.901,0.646 1.108,1.902 0.462,2.802c-0.646,0.901 -1.902,1.108 -2.803,0.462Z" style="fill:#e9fcff;"/><path d="M340.105,60.881l6.72,-28.005c0.259,-1.077 1.344,-1.743 2.422,-1.484c1.078,0.259 1.743,1.344 1.484,2.422l-6.721,28.005c-0.258,1.077 -1.343,1.742 -2.421,1.484c-1.078,-0.259 -1.743,-1.344 -1.484,-2.422Z" style="fill:#e9fcff;"/><path d="M158.616,37.778l22.879,35.597c0.599,0.933 0.329,2.176 -0.604,2.776c-0.932,0.599 -2.176,0.329 -2.775,-0.604l-22.879,-35.598c-0.6,-0.932 -0.329,-2.176 0.603,-2.775c0.933,-0.599 2.176,-0.329 2.776,0.604Z" style="fill:#e9fcff;"/><path d="M179.636,10.046l-20.728,29.471c-0.638,0.906 -1.891,1.125 -2.798,0.487c-0.907,-0.638 -1.125,-1.892 -0.487,-2.798l20.727,-29.47c0.638,-0.907 1.892,-1.125 2.799,-0.488c0.906,0.638 1.125,1.892 0.487,2.798Z" style="fill:#e9fcff;"/><path d="M238.756,38.59l-21.34,30.342c-0.638,0.907 -1.892,1.125 -2.798,0.487c-0.907,-0.637 -1.125,-1.891 -0.488,-2.798l21.341,-30.341c0.638,-0.907 1.891,-1.125 2.798,-0.488c0.907,0.638 1.125,1.892 0.487,2.798Z" style="fill:#e9fcff;"/><path d="M180.133,72.451l34.857,-6.335c1.091,-0.198 2.137,0.526 2.335,1.617c0.199,1.09 -0.526,2.137 -1.617,2.335l-34.857,6.335c-1.091,0.199 -2.137,-0.526 -2.335,-1.617c-0.198,-1.09 0.526,-2.136 1.617,-2.335Z" style="fill:#e9fcff;"/><path d="M214.008,3.981l-35.322,6.819c-1.088,0.21 -2.142,-0.503 -2.352,-1.591c-0.21,-1.089 0.503,-2.143 1.591,-2.353l35.322,-6.819c1.088,-0.21 2.142,0.503 2.352,1.591c0.211,1.088 -0.502,2.143 -1.591,2.353Z" style="fill:#e9fcff;"/><path d="M20.291,77.588l-16.356,55.529c-0.313,1.063 -1.43,1.672 -2.494,1.359c-1.063,-0.313 -1.672,-1.431 -1.359,-2.494l16.356,-55.529c0.313,-1.063 1.43,-1.672 2.494,-1.359c1.063,0.313 1.672,1.431 1.359,2.494Z" style="fill:#e9fcff;"/><path d="M69.912,51.485l-50.25,27.111c-0.976,0.526 -2.195,0.161 -2.721,-0.814c-0.527,-0.976 -0.162,-2.195 0.814,-2.722l50.25,-27.11c0.975,-0.526 2.195,-0.161 2.721,0.814c0.526,0.976 0.161,2.195 -0.814,2.721Z" style="fill:#e9fcff;"/><path d="M103.493,147.595l15.984,-55.976c0.304,-1.066 1.416,-1.684 2.482,-1.38c1.066,0.305 1.684,1.417 1.38,2.483l-15.984,55.976c-0.304,1.066 -1.416,1.684 -2.482,1.38c-1.066,-0.304 -1.684,-1.417 -1.38,-2.483Z" style="fill:#e9fcff;"/><path d="M54.171,173.376l50.419,-26.794c0.979,-0.52 2.196,-0.148 2.716,0.831c0.52,0.979 0.148,2.196 -0.831,2.716l-50.42,26.794c-0.978,0.521 -2.195,0.148 -2.715,-0.831c-0.521,-0.978 -0.148,-2.195 0.831,-2.716Z" style="fill:#e9fcff;"/><path d="M3.594,131.381l51.884,42.929c0.854,0.707 0.974,1.974 0.267,2.828c-0.707,0.854 -1.974,0.974 -2.828,0.267l-51.884,-42.93c-0.854,-0.706 -0.974,-1.973 -0.267,-2.827c0.707,-0.854 1.974,-0.974 2.828,-0.267Z" style="fill:#e9fcff;"/><path d="M71.462,48.051l51.026,42.219c0.854,0.706 0.974,1.973 0.267,2.828c-0.707,0.854 -1.974,0.973 -2.828,0.267l-51.026,-42.219c-0.854,-0.707 -0.973,-1.974 -0.267,-2.828c0.707,-0.854 1.974,-0.974 2.828,-0.267Z" style="fill:#e9fcff;"/><path d="M234.586,37.606l-22.001,-34.509c-0.596,-0.935 -0.321,-2.177 0.614,-2.773c0.934,-0.596 2.177,-0.321 2.773,0.614l22.001,34.509c0.596,0.935 0.321,2.177 -0.613,2.773c-0.935,0.596 -2.178,0.321 -2.774,-0.614Z" style="fill:#e9fcff;"/><path d="M510.491,69.836l-22.359,8.321c-1.039,0.387 -1.569,1.544 -1.182,2.583c0.386,1.039 1.544,1.568 2.582,1.182l22.36,-8.321c1.039,-0.387 1.569,-1.544 1.182,-2.583c-0.386,-1.039 -1.544,-1.568 -2.583,-1.182Z" style="fill:#e9fcff;"/><path d="M527.479,128.007l10.05,3.74c1.039,0.386 1.568,1.544 1.182,2.582c-0.387,1.039 -1.544,1.569 -2.583,1.182l-10.05,-3.739c-1.038,-0.387 -1.568,-1.544 -1.181,-2.583c0.386,-1.039 1.544,-1.569 2.582,-1.182Z" style="fill:#e9fcff;"/><path d="M397.613,23.036l-26.907,46.851c-0.552,0.961 -0.219,2.189 0.742,2.742c0.961,0.552 2.19,0.219 2.742,-0.742l26.906,-46.851c0.552,-0.961 0.22,-2.19 -0.741,-2.742c-0.961,-0.552 -2.19,-0.22 -2.742,0.742Z" style="fill:#e9fcff;"/><path d="M394.287,168.994l12.028,-0.011c1.109,-0.001 2.01,0.898 2.011,2.007c0.001,1.108 -0.898,2.009 -2.007,2.01l-12.028,0.011c-1.109,0.001 -2.009,-0.898 -2.01,-2.007c-0.001,-1.108 0.898,-2.009 2.006,-2.01Z" style="fill:#e9fcff;"/><path d="M518.48,169.013l12.028,-0.011c1.108,-0.001 2.009,0.898 2.01,2.006c0.001,1.109 -0.898,2.009 -2.006,2.01l-12.029,0.011c-1.108,0.001 -2.009,-0.898 -2.01,-2.006c-0.001,-1.109 0.898,-2.009 2.007,-2.01Z" style="fill:#e9fcff;"/><g><path d="M425.938,186.695l-29.662,-0.081l0,-13.584l29.662,0.081l0,13.584Z" style="fill:#487085;"/><path d="M481.437,207.54l-38.86,-0.106l-0,-14.402l38.86,0.106l-0,14.402Z" style="fill:#487085;"/><path d="M528.56,186.625l-29.662,-0.081l-0,-13.584l29.662,0.081l-0,13.584Z" style="fill:#487085;"/><path d="M463.199,185.406l-56.775,-21.674l-0,17.524l56.775,21.674l0,-17.524Z" style="fill:#374f65;"/><path d="M425.938,186.695l-29.662,-0.081l0,21.15l29.662,0.081l0,-21.15Z" style="fill:#32475d;"/><path d="M481.246,186.847l17.175,0.047l-0,20.688l-17.175,-0.047l-0,-20.688Z" style="fill:#32475d;"/><path d="M498.46,189.045l-0,18.56l-11.578,-0.046c5.666,-1.38 9.22,-8.665 11.578,-18.514Z" style="fill:#2a3641;fill-opacity:0.66;"/><path d="M425.938,186.695l16.647,0.046l0,21.15l-16.647,-0.046l0,-21.15Z" style="fill:#374f65;"/><path d="M528.46,186.513l-30.056,-0.083l-0,21.15l30.056,0.083l-0,-21.15Z" style="fill:#374f65;"/><path d="M463.144,185.511l56.775,-21.675l0,17.525l-56.775,21.674l-0,-17.524Z" style="fill:#33495f;"/><path d="M406.572,181.954l0,-18.559l35.842,13.784c-14.859,-4.128 -27.518,-3.934 -35.842,4.775Z" style="fill:#487085;fill-opacity:0.66;"/><path d="M466.706,159.556l-74.809,-29.1l67.515,-24.743l74.808,29.101l-67.514,24.742Z" style="fill:#e0a36c;"/><path d="M472.374,144.107c-5.32,1.95 -12.474,2.431 -15.965,1.073l-30.075,-11.699c-3.491,-1.358 -2.006,-4.044 3.314,-5.994l19.28,-7.066c5.321,-1.949 12.475,-2.43 15.966,-1.072l30.075,11.699c3.491,1.358 2.006,4.044 -3.315,5.994l-19.28,7.065Z" style="fill:#c97f7a;"/><path d="M412.64,79.782l47.176,-18.351l-0,54.566l-47.176,18.351l0,-54.566Z" style="fill:#63364c;"/><path d="M412.64,79.782l-10.193,-3.431l0,54.566l10.193,3.431l0,-54.566Z" style="fill:#663c4d;"/><path d="M411.568,76.042l-10.193,-3.431l49.653,-18.876l10.193,3.431l-49.653,18.876Z" style="fill:#663c4d;"/><path d="M401.446,67.406c-1.654,0.616 -2.706,2.502 -2.348,4.21c0.359,1.708 1.992,2.594 3.645,1.978l47.084,-17.531c1.654,-0.616 2.705,-2.502 2.347,-4.21c-0.358,-1.708 -1.991,-2.594 -3.645,-1.978l-47.083,17.531Z" style="fill:#442d43;"/><path d="M451.391,49.868c-1.715,-0.658 -3.645,0.198 -4.306,1.911c-0.662,1.713 0.192,3.638 1.907,4.296l10.404,3.993c1.714,0.658 3.644,-0.199 4.306,-1.912c0.662,-1.713 -0.193,-3.638 -1.908,-4.296l-10.403,-3.992Z" style="fill:#442d43;"/><path d="M459.418,61.155c-1.4,0.521 -2.529,2.083 -2.521,3.486l0.296,51.214c0.008,1.403 1.15,2.118 2.55,1.597c1.4,-0.521 2.529,-2.083 2.521,-3.485l-0.296,-51.215c-0.008,-1.402 -1.151,-2.118 -2.55,-1.597Z" style="fill:#442e43;"/><path d="M424.688,74.075c-1.399,0.521 -2.529,2.083 -2.521,3.485l0.142,24.589c0.008,1.402 1.151,2.118 2.551,1.597c1.399,-0.521 2.529,-2.083 2.521,-3.485l-0.142,-24.589c-0.008,-1.402 -1.151,-2.118 -2.551,-1.597Z" style="fill:#442e43;"/><path d="M413.309,77.133c-1.399,0.521 -2.529,2.083 -2.521,3.486l0.296,51.214c0.008,1.403 1.151,2.118 2.551,1.597c1.399,-0.521 2.529,-2.083 2.521,-3.485l-0.296,-51.215c-0.008,-1.402 -1.151,-2.118 -2.551,-1.597Z" style="fill:#442e43;"/><path d="M448.534,93.801c-1.4,0.522 -2.529,2.083 -2.521,3.486l0.121,20.982c0.008,1.403 1.151,2.118 2.55,1.597c1.4,-0.521 2.53,-2.083 2.521,-3.485l-0.121,-20.983c-0.008,-1.402 -1.151,-2.118 -2.55,-1.597Z" style="fill:#442e43;"/><path d="M448.178,90.957c-1.399,0.521 -2.542,-0.195 -2.55,-1.597l-0.008,-1.319c-0.008,-1.402 1.122,-2.964 2.521,-3.485c1.4,-0.521 2.543,0.194 2.551,1.597l0.007,1.318c0.008,1.403 -1.121,2.965 -2.521,3.486Z" style="fill:#442e43;"/><path d="M431.501,71.681c-0.908,0.338 -1.64,1.35 -1.634,2.259l0.084,14.593c0.005,0.909 0.746,1.373 1.653,1.035c0.907,-0.337 1.639,-1.35 1.634,-2.259l-0.084,-14.593c-0.006,-0.909 -0.746,-1.373 -1.653,-1.035Z" style="fill:#442e43;"/><path d="M412.72,128.104c-1.884,0.702 -3.405,2.804 -3.394,4.692c0.011,1.889 1.55,2.852 3.434,2.15l46.105,-17.167c1.884,-0.702 3.405,-2.804 3.394,-4.692c-0.011,-1.888 -1.549,-2.852 -3.434,-2.15l-46.105,17.167Z" style="fill:#442e43;"/><path d="M413.01,74.77c-1.654,0.616 -2.706,2.502 -2.348,4.21c0.358,1.707 1.992,2.594 3.645,1.978l49.456,-18.415c1.654,-0.616 2.706,-2.502 2.348,-4.21c-0.358,-1.707 -1.992,-2.594 -3.645,-1.978l-49.456,18.415Z" style="fill:#874967;"/><path d="M401.26,74.622c-1.405,-0.528 -2.54,0.183 -2.532,1.585l0.296,51.215c0.008,1.402 1.156,2.969 2.562,3.496c1.405,0.528 2.54,-0.182 2.532,-1.585l-0.296,-51.214c-0.008,-1.403 -1.156,-2.97 -2.562,-3.497Z" style="fill:#442e43;"/><path d="M402.305,71.02c-1.715,-0.658 -3.644,0.199 -4.306,1.912c-0.662,1.713 0.193,3.638 1.907,4.296l10.404,3.992c1.715,0.658 3.644,-0.198 4.306,-1.911c0.662,-1.713 -0.193,-3.638 -1.907,-4.296l-10.404,-3.993Z" style="fill:#874967;"/><path d="M413.725,75.17c-1.505,0.077 -2.717,1.362 -2.703,2.868l0.252,28.526c0.013,1.506 1.246,2.666 2.752,2.588c1.505,-0.077 2.716,-1.363 2.703,-2.869l-0.252,-28.525c-0.013,-1.506 -1.246,-2.666 -2.752,-2.588Z" style="fill:#874967;"/><path d="M481.26,75.809l16.612,17.146l-29.238,49.82l-16.613,-17.146l29.239,-49.82Z" style="fill:#374f65;"/><path d="M466.706,159.556l-74.809,-29.1l0,24.455l74.809,29.1l-0,-24.455Z" style="fill:#e0a36c;"/><path d="M409.383,109.373l16.612,17.146l42.639,16.256l-16.613,-17.146l-42.638,-16.256Z" style="fill:#2a3641;"/><path d="M466.72,159.496l66.289,-25.786l-0,24.455l-66.289,25.786l0,-24.455Z" style="fill:#ae6872;"/><path d="M530.63,137.571l-0,20.564l-24.245,8.91c10.052,-5.452 18.615,-14.209 24.245,-29.474Z" style="fill:#874967;"/><path d="M468.713,184.655l0,-25.566l53.603,-19.7c-22.223,10.354 -41.155,24.285 -53.603,45.266Z" style="fill:#c97f79;"/><path d="M391.119,157.404l0,-25.566l53.603,17.341c-22.223,-5.003 -41.155,-4.154 -53.603,8.225Z" style="fill:#e4bb67;"/><path d="M466.02,157.23l0,25.565l-53.602,-17.341c22.222,5.004 41.154,4.155 53.602,-8.224Z" style="fill:#c3737d;"/><path d="M476.054,101.71l47.176,-18.351l-0,54.566l-47.176,18.351l0,-54.566Z" style="fill:#63364c;"/><path d="M476.054,101.71l-10.193,-3.431l0,54.566l10.193,3.431l0,-54.566Z" style="fill:#663c4d;"/><path d="M481.329,75.887l-43.366,-16.784l-28.711,50.008l43.367,16.784l28.71,-50.008Z" style="fill:#487085;"/><path d="M474.982,97.97l-10.193,-3.431l49.301,-18.994l10.193,3.431l-49.301,18.994Z" style="fill:#663c4d;"/><path d="M522.832,83.083c-1.4,0.522 -2.529,2.083 -2.521,3.486l0.296,51.214c0.008,1.403 1.151,2.118 2.55,1.597c1.4,-0.521 2.529,-2.083 2.521,-3.485l-0.296,-51.215c-0.008,-1.402 -1.151,-2.118 -2.55,-1.597Z" style="fill:#442e43;"/><path d="M477.316,99.322c-1.399,0.521 -2.529,2.083 -2.521,3.486l0.296,51.214c0.008,1.403 1.151,2.118 2.55,1.597c1.4,-0.521 2.529,-2.083 2.521,-3.485l-0.296,-51.215c-0.008,-1.402 -1.15,-2.118 -2.55,-1.597Z" style="fill:#442e43;"/><path d="M523.222,113.865l-0,20.564l-24.245,8.91c10.052,-5.452 18.615,-14.209 24.245,-29.474Z" style="fill:#442e43;"/><path d="M488.102,96.003c-1.399,0.521 -2.529,2.083 -2.521,3.486l0.142,24.588c0.008,1.403 1.151,2.118 2.551,1.597c1.399,-0.521 2.529,-2.083 2.521,-3.485l-0.142,-24.589c-0.008,-1.402 -1.151,-2.118 -2.551,-1.597Z" style="fill:#442e43;"/><path d="M511.948,115.73c-1.4,0.521 -2.529,2.083 -2.521,3.485l0.121,20.982c0.008,1.403 1.151,2.118 2.55,1.597c1.4,-0.521 2.53,-2.083 2.521,-3.485l-0.121,-20.982c-0.008,-1.403 -1.151,-2.118 -2.55,-1.597Z" style="fill:#442e43;"/><path d="M511.592,112.885c-1.399,0.521 -2.542,-0.195 -2.55,-1.597l-0.008,-1.319c-0.008,-1.402 1.122,-2.964 2.521,-3.485c1.4,-0.521 2.543,0.194 2.551,1.597l0.007,1.319c0.008,1.402 -1.121,2.964 -2.521,3.485Z" style="fill:#442e43;"/><path d="M494.915,93.609c-0.907,0.338 -1.64,1.35 -1.634,2.259l0.084,14.593c0.005,0.91 0.746,1.373 1.653,1.036c0.907,-0.338 1.639,-1.35 1.634,-2.259l-0.084,-14.594c-0.006,-0.909 -0.746,-1.372 -1.653,-1.035Z" style="fill:#442e43;"/><path d="M476.134,150.032c-1.884,0.702 -3.405,2.804 -3.394,4.693c0.011,1.888 1.55,2.851 3.434,2.15l46.105,-17.168c1.884,-0.701 3.405,-2.804 3.394,-4.692c-0.011,-1.888 -1.549,-2.851 -3.434,-2.15l-46.105,17.167Z" style="fill:#442e43;"/><path d="M465.626,179.571c1.653,0.616 2.705,2.502 2.347,4.209c-0.358,1.708 -1.992,2.595 -3.645,1.979l-73.381,-27.324c-1.653,-0.615 -2.705,-2.502 -2.347,-4.209c0.358,-1.708 1.991,-2.594 3.645,-1.979l73.381,27.324Z" style="fill:#c3737d;"/><path d="M513.804,73.944c-1.714,-0.658 -3.644,0.199 -4.306,1.912c-0.662,1.713 0.193,3.638 1.908,4.296l10.404,3.992c1.714,0.658 3.644,-0.198 4.306,-1.911c0.661,-1.713 -0.193,-3.638 -1.908,-4.296l-10.404,-3.993Z" style="fill:#442d43;"/><path d="M466.515,156.309c1.653,0.616 2.705,2.502 2.347,4.21c-0.358,1.707 -1.992,2.594 -3.645,1.978l-73.381,-27.323c-1.653,-0.616 -2.705,-2.502 -2.347,-4.21c0.358,-1.708 1.991,-2.594 3.645,-1.978l73.381,27.323Z" style="fill:#fefc97;"/><path d="M464.756,156.688c-1.653,0.616 -2.705,2.502 -2.347,4.21c0.358,1.708 1.991,2.594 3.645,1.978l35.156,-13.09c1.654,-0.616 2.705,-2.502 2.347,-4.21c-0.358,-1.707 -1.991,-2.594 -3.645,-1.978l-35.156,13.09Z" style="fill:#f4e693;"/><path d="M519.62,136.701c1.653,-0.616 3.287,0.27 3.645,1.978c0.358,1.708 -0.694,3.594 -2.347,4.21l-8.254,3.073c-1.653,0.615 -3.287,-0.271 -3.645,-1.979c-0.358,-1.707 0.694,-3.593 2.347,-4.209l8.254,-3.073Z" style="fill:#f4e693;"/><path d="M464.756,156.688c-1.653,0.616 -2.705,2.502 -2.347,4.21c0.358,1.708 1.991,2.594 3.645,1.978l22.537,-8.391c1.653,-0.616 2.705,-2.502 2.347,-4.21c-0.358,-1.707 -1.991,-2.594 -3.645,-1.978l-22.537,8.391Z" style="fill:#fefc97;"/><path d="M435.297,144.685c1.653,0.616 2.705,2.502 2.347,4.21c-0.358,1.707 -1.991,2.594 -3.645,1.978l-42.163,-15.699c-1.653,-0.616 -2.705,-2.502 -2.347,-4.21c0.358,-1.708 1.991,-2.594 3.645,-1.978l42.163,15.699Z" style="fill:#fffeca;"/><path d="M397.437,125.125c1.613,-0.716 3.684,-0.102 4.622,1.369c0.937,1.472 0.389,3.247 -1.223,3.963l-7.38,3.275c-1.612,0.716 -3.683,0.102 -4.621,-1.369c-0.938,-1.471 -0.39,-3.247 1.223,-3.963l7.379,-3.275Z" style="fill:#fffeca;"/><path d="M467.354,180.297c-1.654,0.616 -2.706,2.502 -2.348,4.209c0.358,1.708 1.992,2.595 3.645,1.979l63.907,-23.796c1.654,-0.616 2.706,-2.502 2.348,-4.21c-0.358,-1.707 -1.992,-2.594 -3.645,-1.978l-63.907,23.796Z" style="fill:#874967;"/><path d="M476.424,96.698c-1.654,0.616 -2.706,2.502 -2.348,4.21c0.359,1.707 1.992,2.594 3.645,1.978l47.084,-17.532c1.654,-0.615 2.705,-2.502 2.347,-4.209c-0.358,-1.708 -1.991,-2.594 -3.645,-1.979l-47.083,17.532Z" style="fill:#874967;"/><path d="M532.851,133.51c-1.399,0.521 -2.529,2.083 -2.521,3.485l0.138,23.926c0.008,1.402 1.151,2.118 2.551,1.596c1.399,-0.521 2.529,-2.082 2.521,-3.485l-0.138,-23.925c-0.008,-1.403 -1.151,-2.118 -2.551,-1.597Z" style="fill:#874967;"/><path d="M390.913,129.182c1.403,-0.109 2.536,0.942 2.528,2.345l-0.138,23.881c-0.008,1.402 -1.154,2.629 -2.557,2.737c-1.404,0.108 -2.536,-0.943 -2.528,-2.345l0.138,-23.882c0.008,-1.402 1.154,-2.628 2.557,-2.736Z" style="fill:#fefc97;"/><path d="M466.583,156.87c1.403,-0.108 2.536,0.943 2.528,2.346l-0.111,19.225c-0.008,1.403 -1.154,2.629 -2.557,2.737c-1.404,0.108 -2.536,-0.943 -2.528,-2.345l0.111,-19.226c0.008,-1.402 1.154,-2.629 2.557,-2.737Z" style="fill:#fefc97;"/><path d="M390.913,129.182c1.403,-0.109 2.536,0.942 2.528,2.345l-0.102,17.627c-0.008,1.403 -1.154,2.629 -2.557,2.737c-1.403,0.108 -2.536,-0.943 -2.528,-2.345l0.102,-17.628c0.008,-1.402 1.154,-2.628 2.557,-2.736Z" style="fill:#fffeca;"/><path d="M438.448,41.489l-38.259,-14.807l-25.547,44.499l38.258,14.808l25.548,-44.5Z" style="fill:#487085;"/><path d="M427.239,46.705l-24.817,-9.605l-16.572,28.865l24.817,9.606l16.572,-28.866Z" style="fill:#2a3641;"/><clipPath id="_clip1"><path d="M427.239,46.705l-24.817,-9.605l-16.572,28.865l24.817,9.606l16.572,-28.866Z"/></clipPath><g clip-path="url(#_clip1)"><path d="M427.134,46.664l-24.712,-9.564l22.47,13.372l24.713,9.565l-22.471,-13.373Z" style="fill:#212324;fill-opacity:0.58;"/></g><path d="M438.448,41.489l6.136,6.334l-25.547,44.499l-6.137,-6.333l25.548,-44.5Z" style="fill:#33495f;"/><path d="M387.324,77.533l29.716,28.538l33.162,12.643l-29.716,-28.538l-33.162,-12.643Z" style="fill:#32475d;"/><path d="M374.693,71.227l6.136,6.334l38.208,14.761l-6.137,-6.333l-38.207,-14.762Z" style="fill:#2a3641;"/><path d="M443.136,50.017l30.376,28.796l-22.997,40.057l-30.376,-28.796l22.997,-40.057Z" style="fill:#374f65;"/><path d="M450.395,56.477l23.212,22.269l-13.522,24.106c3.622,-11.898 2.066,-26.486 -9.69,-46.375Z" style="fill:#33495f;"/><path d="M464.675,96.55c-1.406,-0.528 -2.541,0.183 -2.533,1.585l0.296,51.215c0.008,1.402 1.156,2.969 2.562,3.497c1.405,0.527 2.54,-0.183 2.532,-1.586l-0.296,-51.214c-0.008,-1.403 -1.156,-2.97 -2.561,-3.497Z" style="fill:#442e43;"/><path d="M463.859,91.483c-1.653,0.616 -2.705,2.502 -2.347,4.209c0.358,1.708 1.992,2.595 3.645,1.979l47.084,-17.532c1.653,-0.616 2.705,-2.502 2.347,-4.21c-0.358,-1.707 -1.991,-2.594 -3.645,-1.978l-47.084,17.532Z" style="fill:#442d43;"/><path d="M465.719,92.948c-1.715,-0.658 -3.644,0.199 -4.306,1.912c-0.662,1.713 0.193,3.638 1.907,4.296l10.404,3.993c1.715,0.658 3.644,-0.199 4.306,-1.912c0.662,-1.713 -0.192,-3.638 -1.907,-4.296l-10.404,-3.993Z" style="fill:#874967;"/><path d="M477.139,97.098c-1.505,0.077 -2.717,1.363 -2.703,2.869l0.252,28.525c0.013,1.506 1.246,2.666 2.752,2.589c1.505,-0.078 2.717,-1.363 2.703,-2.869l-0.252,-28.526c-0.013,-1.506 -1.246,-2.666 -2.752,-2.588Z" style="fill:#874967;"/><path d="M477.139,97.098c-1.505,0.077 -2.717,1.363 -2.703,2.869l0.252,28.525c0.013,1.506 1.246,2.666 2.752,2.589c1.505,-0.078 2.717,-1.363 2.703,-2.869l-0.252,-28.526c-0.013,-1.506 -1.246,-2.666 -2.752,-2.588Z" style="fill:#874967;"/></g><g><path d="M323.49,37.438l-18.799,-13.73l23.259,-3.515l18.8,13.73l-23.26,3.515Z" style="fill:#487085;"/><path d="M323.781,37.529l-6.43,25.917l-18.95,-13.857l6.429,-25.916l18.951,13.856Z" style="fill:#32475d;"/><path d="M323.49,37.438l-6.412,25.846l23.26,-3.515l6.412,-25.846l-23.26,3.515Z" style="fill:#374f65;"/></g><g><path d="M193.167,32.854l-34.078,6.226l20.035,-28.706l34.078,-6.225l-20.035,28.705Z" style="fill:#487085;"/><path d="M193.564,32.635l21.386,33.49l-34.37,6.258l-21.386,-33.49l34.37,-6.258Z" style="fill:#32475d;"/><path d="M193.167,32.854l21.329,33.4l20.034,-28.706l-21.328,-33.399l-20.035,28.705Z" style="fill:#374f65;"/></g><g><path d="M53.444,106.073l-49.413,26.447l16.132,-54.298l49.412,-26.446l-16.131,54.297Z" style="fill:#487085;"/><path d="M53.944,105.539l50.298,41.261l-49.846,26.641l-50.298,-41.262l49.846,-26.64Z" style="fill:#32475d;"/><path d="M53.444,106.073l50.162,41.151l16.132,-54.298l-50.163,-41.15l-16.131,54.297Z" style="fill:#374f65;"/></g></svg>