<?xml version="1.0" encoding="UTF-8" standalone="no"?><!DOCTYPE svg PUBLIC "-//W3C//DTD SVG 1.1//EN" "http://www.w3.org/Graphics/SVG/1.1/DTD/svg11.dtd"><svg width="100%" height="100%" viewBox="0 0 214 219" version="1.1" xmlns="http://www.w3.org/2000/svg" xmlns:xlink="http://www.w3.org/1999/xlink" xml:space="preserve" xmlns:serif="http://www.serif.com/" style="fill-rule:evenodd;clip-rule:evenodd;stroke-linejoin:round;stroke-miterlimit:2;"><g><path d="M106.133,90.638L15.88,54.426L106.42,16.231L196.672,52.443L106.133,90.638Z" style="fill:#487085;"/><path d="M107.403,90.711L108.078,202.253L17.085,165.683L16.41,54.141L107.403,90.711Z" style="fill:#32475d;"/><path d="M106.133,90.638L106.806,201.878L197.346,163.683L196.672,52.443L106.133,90.638Z" style="fill:#374f65;"/></g><path d="M16.808,50.292L16.808,169.433C16.808,174.071 13.042,177.837 8.404,177.837C3.766,177.837 0,174.071 0,169.433L0,50.292C0,45.654 3.766,41.888 8.404,41.888C13.042,41.888 16.808,45.654 16.808,50.292Z" style="fill:#e9fcff;"/><path d="M110.5,16.185L14.09,55.574C9.797,57.329 4.886,55.267 3.132,50.973C1.378,46.68 3.44,41.769 7.733,40.015L104.143,0.626C108.436,-1.129 113.347,0.933 115.101,5.227C116.855,9.52 114.793,14.431 110.5,16.185Z" style="fill:#e9fcff;"/><path d="M200.75,55.557L105.704,16.641C101.411,14.884 99.353,9.972 101.111,5.68C102.868,1.387 107.78,-0.671 112.073,1.087L207.119,40.002C211.411,41.76 213.469,46.671 211.712,50.964C209.954,55.256 205.043,57.314 200.75,55.557Z" style="fill:#e9fcff;"/><path d="M109.686,202.401L13.277,163.011C8.983,161.257 4.073,163.319 2.319,167.612C0.565,171.906 2.626,176.816 6.92,178.571L103.329,217.96C107.623,219.714 112.533,217.653 114.288,213.359C116.042,209.065 113.98,204.155 109.686,202.401Z" style="fill:#e9fcff;"/><path d="M199.635,162.544L105.022,202.501C100.749,204.305 98.745,209.239 100.55,213.512C102.354,217.785 107.288,219.789 111.561,217.984L206.174,178.027C210.447,176.223 212.451,171.289 210.646,167.016C208.842,162.743 203.908,160.739 199.635,162.544Z" style="fill:#e9fcff;"/><path d="M196.181,167.827L196.27,49.708C196.273,45.069 200.042,41.307 204.68,41.31C209.318,41.314 213.081,45.082 213.078,49.72L212.989,167.84C212.986,172.478 209.217,176.241 204.579,176.237C199.941,176.234 196.178,172.465 196.181,167.827Z" style="fill:#e9fcff;"/></svg>