<?xml version="1.0" encoding="UTF-8" standalone="no"?><!DOCTYPE svg PUBLIC "-//W3C//DTD SVG 1.1//EN" "http://www.w3.org/Graphics/SVG/1.1/DTD/svg11.dtd"><svg width="100%" height="100%" viewBox="0 0 603 426" version="1.1" xmlns="http://www.w3.org/2000/svg" xmlns:xlink="http://www.w3.org/1999/xlink" xml:space="preserve" xmlns:serif="http://www.serif.com/" style="fill-rule:evenodd;clip-rule:evenodd;stroke-linejoin:round;stroke-miterlimit:2;"><path d="M562.014,343.864l-164.47,64.716c-45.386,17.859 -110.929,22.018 -146.271,9.281l-229.295,-82.63c-35.343,-12.736 -27.189,-37.576 18.197,-55.435l164.47,-64.715c45.387,-17.859 110.929,-22.018 146.272,-9.281l229.295,82.63c35.342,12.736 27.188,37.576 -18.198,55.434Z" style="fill:#151822;"/><path d="M352.176,6.109c1.439,4.333 -0.911,9.02 -5.245,10.459l-243.633,80.885c-4.333,1.439 -9.02,-0.912 -10.459,-5.245c-1.439,-4.334 0.912,-9.021 5.246,-10.46l243.632,-80.885c4.334,-1.439 9.02,0.912 10.459,5.246Z" style="fill:#e5f9fe;"/><path d="M487.581,139.544c1.438,4.334 -0.912,9.02 -5.246,10.459l-94.129,31.251c-4.334,1.439 -9.021,-0.912 -10.46,-5.245c-1.438,-4.334 0.912,-9.021 5.246,-10.46l94.129,-31.25c4.334,-1.439 9.021,0.911 10.46,5.245Z" style="fill:#e5f9fe;"/><path d="M439.762,317.533c1.438,4.334 -0.912,9.021 -5.246,10.459l-128.872,42.785c-4.333,1.439 -9.02,-0.911 -10.459,-5.245c-1.439,-4.334 0.912,-9.02 5.246,-10.459l128.871,-42.785c4.334,-1.439 9.021,0.911 10.46,5.245Z" style="fill:#e5f9fe;"/><path d="M222.25,253.113c1.439,4.334 -0.911,9.02 -5.245,10.459l-44.394,14.739c-4.334,1.439 -9.021,-0.912 -10.459,-5.246c-1.439,-4.333 0.911,-9.02 5.245,-10.459l44.394,-14.739c4.334,-1.438 9.021,0.912 10.459,5.246Z" style="fill:#e5f9fe;"/><path d="M99.811,176.536c4.566,-0.035 8.245,-3.77 8.211,-8.337l-0.592,-77.95c-0.034,-4.566 -3.77,-8.245 -8.336,-8.21c-4.566,0.034 -8.245,3.77 -8.211,8.336l0.591,77.95c0.035,4.566 3.77,8.245 8.337,8.211Z" style="fill:#e5f9fe;"/><path d="M480.929,149.284c4.566,-0.034 8.246,-3.77 8.211,-8.336l-0.627,-82.69c-0.035,-4.566 -3.77,-8.245 -8.336,-8.211c-4.567,0.035 -8.246,3.77 -8.211,8.336l0.627,82.69c0.035,4.567 3.77,8.246 8.336,8.211Z" style="fill:#e5f9fe;"/><path d="M211.638,270.36c4.566,-0.035 8.245,-3.77 8.21,-8.336l-0.396,-52.315c-0.035,-4.566 -3.77,-8.245 -8.337,-8.211c-4.566,0.035 -8.245,3.77 -8.21,8.337l0.396,52.314c0.035,4.567 3.77,8.246 8.337,8.211Z" style="fill:#e5f9fe;"/><path d="M385.043,262.153c4.566,-0.035 8.245,-3.77 8.211,-8.336l-0.638,-84.084c-0.034,-4.566 -3.77,-8.245 -8.336,-8.211c-4.566,0.035 -8.245,3.77 -8.211,8.336l0.638,84.084c0.034,4.567 3.77,8.246 8.336,8.211Z" style="fill:#e5f9fe;"/><path d="M169.253,328.486c4.567,-0.035 8.246,-3.77 8.211,-8.336l-0.371,-48.936c-0.035,-4.567 -3.77,-8.246 -8.336,-8.211c-4.567,0.035 -8.246,3.77 -8.211,8.336l0.371,48.936c0.035,4.566 3.77,8.246 8.336,8.211Z" style="fill:#e5f9fe;"/><path d="M432.671,327.493c4.566,-0.034 8.245,-3.77 8.211,-8.336l-0.371,-48.936c-0.035,-4.566 -3.77,-8.245 -8.337,-8.211c-4.566,0.035 -8.245,3.77 -8.21,8.336l0.371,48.936c0.034,4.567 3.77,8.246 8.336,8.211Z" style="fill:#e5f9fe;"/><path d="M91.387,169.867c1.404,-4.346 6.071,-6.734 10.417,-5.33l122.21,39.473c4.345,1.403 6.734,6.071 5.33,10.416c-1.403,4.345 -6.071,6.734 -10.416,5.33l-122.21,-39.473c-4.346,-1.403 -6.734,-6.071 -5.331,-10.416Z" style="fill:#e5f9fe;"/><path d="M335.651,5.634c1.458,-4.328 6.155,-6.657 10.482,-5.199l134.496,45.315c4.328,1.458 6.657,6.155 5.199,10.483c-1.458,4.327 -6.155,6.657 -10.482,5.199l-134.497,-45.316c-4.327,-1.458 -6.656,-6.155 -5.198,-10.482Z" style="fill:#e5f9fe;"/><path d="M374.689,250.095c1.403,-4.345 6.071,-6.733 10.416,-5.33l49.06,15.847c4.346,1.403 6.734,6.07 5.331,10.416c-1.404,4.345 -6.071,6.734 -10.417,5.33l-49.06,-15.846c-4.345,-1.404 -6.734,-6.071 -5.33,-10.417Z" style="fill:#e5f9fe;"/><path d="M163.017,318.636c1.439,-4.376 6.222,-6.781 10.676,-5.368l129.984,41.256c4.455,1.414 6.902,6.115 5.464,10.491c-1.439,4.376 -6.222,6.783 -10.677,5.368l-129.984,-41.255c-4.453,-1.414 -6.902,-6.115 -5.463,-10.492Z" style="fill:#e5f9fe;"/><g><path d="M299.491,234.122l-122.07,40.162l124.658,40.756l122.07,-40.163l-124.658,-40.755Z" style="fill:#487085;"/><path d="M218.215,157.213l-0,115.214l84.357,29.206l-0,-115.213l-84.357,-29.207Z" style="fill:#374f65;"/><path d="M177.423,314.548l-0,-40.28l124.811,40.806l-0,40.279l-124.811,-40.805Z" style="fill:#374f65;"/><path d="M423.916,315.327l-0,-40.71l-122.482,40.044l-0,40.71l122.482,-40.044Z" style="fill:#32475d;"/><path d="M377.674,159.805l-0,115.679l-75.562,26.063l-0,-115.679l75.562,-26.063Z" style="fill:#32475d;"/><path d="M217.519,243.675l-0,-85.206l86.276,26.177c-35.769,-3.567 -66.241,10.429 -86.276,59.029Z" style="fill:#487085;fill-opacity:0.33;"/><path d="M113.062,97.102l-0,69.871l131.268,45.448l-0,-69.871l-131.268,-45.448Z" style="fill:#e0a36c;"/><path d="M465.592,64.346l-0,70.267l-223.425,77.064l-0,-70.268l223.425,-77.063Z" style="fill:#ae6872;"/><path d="M111.208,96.544l230.911,-80.407l131.268,45.448l-230.911,80.407l-131.268,-45.448Z" style="fill:#e4bb67;"/><path d="M219.931,72.504l63.293,-23.575c17.466,-6.506 40.96,-8.264 52.433,-3.923l54.454,20.605c11.472,4.341 6.606,13.147 -10.86,19.653l-63.293,23.575c-17.466,6.506 -40.961,8.263 -52.433,3.923l-54.454,-20.605c-11.472,-4.341 -6.606,-13.147 10.86,-19.653Z" style="fill:#e0a36c;"/><path d="M246.403,147.038l-0,66.498l-139.425,-45.105c57.803,13.014 107.047,10.806 139.425,-21.393Z" style="fill:#c3737d;"/><path d="M107.546,168.625l-0,-66.498l105.988,34.288c-43.941,-8.53 -81.375,-2.501 -105.988,32.21Z" style="fill:#e4bb67;"/><path d="M247.119,146.485c-0,4.384 -3.222,6.901 -7.191,5.618l-128.591,-41.58c-3.969,-1.284 -7.191,-5.885 -7.191,-10.269c-0,-4.383 3.222,-6.901 7.191,-5.617l128.591,41.58c3.969,1.283 7.191,5.884 7.191,10.268Z" style="fill:#fefc97;"/><path d="M474.891,68.547c-0.425,4.246 -3.955,6.588 -7.876,5.226l-120.392,-41.799c-3.921,-1.361 -6.759,-5.914 -6.333,-10.16c0.425,-4.246 3.955,-6.588 7.876,-5.227l120.392,41.799c3.921,1.362 6.759,5.915 6.333,10.161Z" style="fill:#fefc97;"/><path d="M239.567,207.303c-0,4.384 3.211,6.886 7.166,5.583l218.408,-71.931c3.954,-1.302 7.165,-5.919 7.165,-10.303c-0,-4.384 -3.211,-6.885 -7.165,-5.583l-218.408,71.931c-3.955,1.303 -7.166,5.919 -7.166,10.303Z" style="fill:#874967;"/><path d="M247.012,206.177c-0,4.384 -3.211,6.885 -7.166,5.583l-128.642,-42.367c-3.954,-1.303 -7.165,-5.919 -7.165,-10.303c-0,-4.384 3.211,-6.886 7.165,-5.583l128.642,42.367c3.955,1.302 7.166,5.919 7.166,10.303Z" style="fill:#c3737d;"/><path d="M459.602,78.855l-0,53.766c-0,4.188 3.067,6.578 6.846,5.334c3.778,-1.245 6.846,-5.655 6.846,-9.843l-0,-53.766c-0,-4.188 -3.068,-6.578 -6.846,-5.334c-3.779,1.245 -6.846,5.655 -6.846,9.843Z" style="fill:#874967;"/><path d="M460.627,82.504l-0,47.721l-97.625,35.88c40.474,-18.956 74.954,-44.645 97.625,-83.601Z" style="fill:#874967;"/><path d="M244.491,202.041l-0,-53.434l201.108,-66.755c-83.377,32.244 -154.406,70.397 -201.108,120.189Z" style="fill:#c97f79;"/><path d="M246.805,145.643l1.34,48.031c0.11,3.96 -2.685,6.243 -6.238,5.094c-3.553,-1.149 -6.527,-5.297 -6.638,-9.257l-1.34,-48.032c-0.11,-3.96 2.685,-6.243 6.238,-5.094c3.553,1.149 6.528,5.297 6.638,9.258Z" style="fill:#fefc97;"/><path d="M117.022,103.586l-0,51.4c-0,3.925 -2.885,6.178 -6.438,5.029c-3.554,-1.149 -6.438,-5.268 -6.438,-9.192l-0,-51.401c-0,-3.924 2.884,-6.178 6.438,-5.029c3.553,1.149 6.438,5.268 6.438,9.193Z" style="fill:#fffeca;"/><path d="M344.849,29.172l-233.453,77.654c-3.565,1.186 -7.091,-0.816 -7.869,-4.469c-0.777,-3.652 1.486,-7.581 5.052,-8.767l233.453,-77.654c3.565,-1.186 7.091,0.817 7.869,4.469c0.777,3.653 -1.486,7.581 -5.052,8.767Z" style="fill:#fffeca;"/><path d="M234.136,146.485c-0,4.384 3.194,6.862 7.127,5.531l120.545,-40.793c3.934,-1.332 7.127,-5.971 7.127,-10.355c-0,-4.384 -3.193,-6.862 -7.127,-5.531l-120.545,40.793c-3.933,1.332 -7.127,5.971 -7.127,10.355Z" style="fill:#f4e693;"/><path d="M468.335,67.23c-0,4.384 -3.194,9.023 -7.127,10.354l-71.853,24.316c-3.934,1.332 -7.127,-1.147 -7.127,-5.531c-0,-4.383 3.193,-9.023 7.127,-10.354l71.853,-24.316c3.933,-1.331 7.127,1.147 7.127,5.531Z" style="fill:#f4e693;"/><path d="M234.136,146.485c-0,4.384 3.194,6.862 7.127,5.531l54.479,-18.436c3.934,-1.331 7.127,-5.971 7.127,-10.355c-0,-4.384 -3.193,-6.862 -7.127,-5.531l-54.479,18.436c-3.933,1.332 -7.127,5.971 -7.127,10.355Z" style="fill:#fefc97;"/><path d="M159.188,118.617c-0,4.696 -3.452,7.392 -7.703,6.018l-39.637,-12.817c-4.251,-1.375 -7.702,-6.303 -7.702,-10.999c-0,-4.695 3.451,-7.392 7.702,-6.017l39.637,12.817c4.251,1.374 7.703,6.303 7.703,10.998Z" style="fill:#fffeca;"/><path d="M377.746,213.085l-0,62.635l-64.297,22.073c26.657,-14.507 49.366,-39.388 64.297,-84.708Z" style="fill:#2a3641;fill-opacity:0.66;"/><path d="M423.783,274.473l-0,40.571l-92.43,31.271c38.32,-16.434 70.966,-38.545 92.43,-71.842Z" style="fill:#2a3641;fill-opacity:0.66;"/><path d="M422.936,84.081l-114.396,37.423l-134.253,-50.871l114.397,-37.423l134.252,50.871Z" style="fill:#7594f0;"/><path d="M346.425,109.487l-13.13,4.295l-134.786,-51.073l13.13,-4.295l134.786,51.073Z" style="fill:#90aaf6;"/><path d="M403.353,76.533l-114.568,37.478l-13.606,-5.156l114.568,-37.478l13.606,5.156Z" style="fill:#90aaf6;"/><path d="M326.274,101.656l-12.982,4.247l-13.511,-5.12l12.982,-4.247l13.511,5.12Z" style="fill:#9eb8fb;"/><path d="M422.036,84.395l-113.546,37.145l0.181,27.747c0.033,5.105 4.196,7.896 9.29,6.23l95.087,-31.106c5.094,-1.666 9.203,-7.164 9.169,-12.268l-0.181,-27.748Z" style="fill:#6285ed;"/><g><clipPath id="_clip1"><path d="M422.036,84.395l-113.546,37.145l0.181,27.747c0.033,5.105 4.196,7.896 9.29,6.23l95.087,-31.106c5.094,-1.666 9.203,-7.164 9.169,-12.268l-0.181,-27.748Z"/></clipPath><g clip-path="url(#_clip1)"><path d="M345.793,109.539l-12.387,4.052l0.647,36.771l12.386,-4.052l-0.646,-36.771Z" style="fill:#90aaf6;"/></g></g></g><path d="M177.955,315.209l-0,-39.985l117.848,38.212c-48.858,-12.424 -90.48,-15.013 -117.848,1.773Z" style="fill:#487085;fill-opacity:0.33;"/></svg>